<svg width="73" height="40" viewBox="0 0 73 40" fill="none" xmlns="http://www.w3.org/2000/svg">
<path d="M12.432 34.88C11.936 34.976 11.312 35.048 10.56 35.096C9.824 35.16 9.136 35.192 8.496 35.192C6.512 35.192 5.064 34.976 4.152 34.544C3.24 34.112 2.624 33.328 2.304 32.192C2 31.04 1.848 29.224 1.848 26.744C1.848 24.28 2 22.472 2.304 21.32C2.624 20.168 3.24 19.376 4.152 18.944C5.064 18.512 6.512 18.296 8.496 18.296C9.152 18.296 9.84 18.328 10.56 18.392C11.28 18.456 11.872 18.544 12.336 18.656V20.456C11.136 20.296 10.032 20.216 9.024 20.216C7.344 20.216 6.168 20.344 5.496 20.6C4.84 20.856 4.408 21.408 4.2 22.256C3.992 23.104 3.888 24.6 3.888 26.744C3.888 28.888 3.992 30.384 4.2 31.232C4.408 32.08 4.84 32.632 5.496 32.888C6.168 33.144 7.344 33.272 9.024 33.272C10.256 33.272 11.392 33.192 12.432 33.032V34.88Z" fill="#FFD200"/>
<path d="M14.9807 25.9V24.598H16.1847V25.9H14.9807ZM15.0227 35V27.86H16.1567V35H15.0227ZM23.4074 30.982C23.4074 30.3193 23.3654 29.848 23.2814 29.568C23.1974 29.2787 23.0387 29.0873 22.8054 28.994C22.572 28.9007 22.18 28.854 21.6294 28.854C21.0414 28.854 20.6074 28.9473 20.3274 29.134C20.0567 29.3207 19.884 29.5773 19.8094 29.904C19.744 30.2307 19.7114 30.702 19.7114 31.318V35H18.5774V27.86H19.5854L19.6414 28.868H19.7254C19.884 28.504 20.1454 28.2287 20.5094 28.042C20.8734 27.846 21.4007 27.748 22.0914 27.748C22.782 27.748 23.3 27.846 23.6454 28.042C24 28.238 24.238 28.532 24.3594 28.924C24.4807 29.3067 24.5414 29.8433 24.5414 30.534V35H23.4074V30.982ZM32.6702 31.836H27.7842C27.7842 32.5173 27.8309 33.0027 27.9242 33.292C28.0176 33.5813 28.2182 33.7867 28.5262 33.908C28.8436 34.02 29.3709 34.076 30.1082 34.076C30.8269 34.076 31.5876 34.0247 32.3902 33.922V34.916C32.0916 34.972 31.7042 35.0187 31.2282 35.056C30.7522 35.0933 30.2996 35.112 29.8702 35.112C28.9089 35.112 28.1996 35 27.7422 34.776C27.2942 34.552 27.0002 34.1927 26.8602 33.698C26.7202 33.2033 26.6502 32.452 26.6502 31.444C26.6502 30.4547 26.7109 29.7127 26.8322 29.218C26.9629 28.7233 27.2476 28.3547 27.6862 28.112C28.1342 27.8693 28.8389 27.748 29.8002 27.748C30.6962 27.748 31.3449 27.8693 31.7462 28.112C32.1476 28.3453 32.3996 28.7047 32.5022 29.19C32.6142 29.666 32.6702 30.4127 32.6702 31.43V31.836ZM29.7722 28.784C29.1656 28.784 28.7269 28.84 28.4562 28.952C28.1949 29.0547 28.0176 29.2553 27.9242 29.554C27.8402 29.8433 27.7936 30.3147 27.7842 30.968H31.5782V30.856C31.5782 30.24 31.5222 29.7873 31.4102 29.498C31.3076 29.2087 31.1349 29.0173 30.8922 28.924C30.6496 28.8307 30.2762 28.784 29.7722 28.784ZM43.5842 30.982C43.5842 30.31 43.5469 29.834 43.4722 29.554C43.4069 29.274 43.2716 29.0873 43.0662 28.994C42.8609 28.9007 42.5156 28.854 42.0302 28.854C41.5076 28.854 41.1249 28.9427 40.8822 29.12C40.6396 29.2973 40.4856 29.5493 40.4202 29.876C40.3549 30.2027 40.3222 30.6833 40.3222 31.318V35H39.1882V30.982C39.1882 30.31 39.1509 29.834 39.0762 29.554C39.0109 29.274 38.8756 29.0873 38.6702 28.994C38.4649 28.9007 38.1196 28.854 37.6342 28.854C37.1116 28.854 36.7289 28.9473 36.4862 29.134C36.2436 29.3113 36.0896 29.568 36.0242 29.904C35.9589 30.2307 35.9262 30.702 35.9262 31.318V35H34.7922V27.86H35.8002L35.8562 28.868H35.9402C36.0802 28.504 36.3182 28.2287 36.6542 28.042C36.9996 27.846 37.4849 27.748 38.1102 27.748C38.7262 27.748 39.1929 27.8367 39.5102 28.014C39.8276 28.1913 40.0469 28.476 40.1682 28.868H40.2662C40.5649 28.1213 41.3069 27.748 42.4922 27.748C43.1176 27.748 43.5889 27.846 43.9062 28.042C44.2236 28.238 44.4382 28.532 44.5502 28.924C44.6622 29.3067 44.7182 29.8433 44.7182 30.534V35H43.5842V30.982ZM49.0556 35.112C48.2343 35.112 47.6369 34.9627 47.2636 34.664C46.8903 34.356 46.7036 33.8147 46.7036 33.04C46.7036 32.4893 46.7689 32.06 46.8996 31.752C47.0303 31.444 47.2496 31.22 47.5576 31.08C47.8749 30.94 48.3183 30.87 48.8876 30.87C49.1583 30.87 50.0496 30.8933 51.5616 30.94V30.52C51.5616 29.96 51.5056 29.5633 51.3936 29.33C51.2909 29.0967 51.0949 28.9473 50.8056 28.882C50.5256 28.8167 50.0449 28.784 49.3636 28.784C49.0649 28.784 48.6869 28.8027 48.2296 28.84C47.7816 28.868 47.4316 28.9007 47.1796 28.938V27.944C47.9169 27.8133 48.7803 27.748 49.7696 27.748C50.6096 27.748 51.2349 27.8367 51.6456 28.014C52.0656 28.182 52.3456 28.462 52.4856 28.854C52.6256 29.2367 52.6956 29.7967 52.6956 30.534V35H51.6736L51.6176 34.006H51.5336C51.3376 34.454 51.0203 34.7527 50.5816 34.902C50.1523 35.042 49.6436 35.112 49.0556 35.112ZM49.4896 34.09C49.9563 34.09 50.3343 34.048 50.6236 33.964C50.9223 33.88 51.1369 33.7167 51.2676 33.474C51.4636 33.138 51.5616 32.6713 51.5616 32.074V31.752H49.1816C48.7896 31.752 48.5003 31.78 48.3136 31.836C48.1363 31.892 48.0103 32.004 47.9356 32.172C47.8609 32.3307 47.8236 32.5827 47.8236 32.928C47.8236 33.264 47.8656 33.5113 47.9496 33.67C48.0336 33.8287 48.1876 33.9407 48.4116 34.006C48.6449 34.062 49.0043 34.09 49.4896 34.09Z" fill="#FFFEFB"/>
<g clip-path="url(#clip0)">
<g clip-path="url(#clip1)">
<path d="M33.9842 18.0938L36.786 24.204L49.9664 18.1602L46.2307 10.0132L33.0503 16.057L33.9842 18.0938ZM48.3726 17.0836L48.8084 18.0339L47.6721 18.5549L47.2364 17.6046L48.3726 17.0836ZM46.3274 18.0214L46.7631 18.9717L45.6269 19.4927L45.1912 18.5424L46.3274 18.0214ZM44.2822 18.9592L44.7179 19.9095L43.5817 20.4305L43.1459 19.4803L44.2822 18.9592ZM42.2369 19.8971L42.6727 20.8473L41.5364 21.3684L41.1007 20.4181L42.2369 19.8971ZM40.1917 20.8349L40.6274 21.7852L39.4912 22.3062L39.0555 21.3559L40.1917 20.8349ZM38.1465 21.7727L38.5822 22.723L37.446 23.244L37.0102 22.2937L38.1465 21.7727ZM42.1652 14.3425L46.2556 12.4668L48.1235 16.5402L42.8968 18.9369L41.0289 14.8635L42.1652 14.3425ZM36.0295 17.1559L40.1199 15.2803L41.9878 19.3537L36.7611 21.7503L34.8932 17.677L36.0295 17.1559ZM45.5707 10.9731L46.0066 11.9237L44.8703 12.4447L44.4345 11.4942L45.5707 10.9731ZM43.5255 11.911L43.9614 12.8615L42.8251 13.3825L42.3893 12.432L43.5255 11.911ZM41.4803 12.8488L41.9161 13.7993L40.7799 14.3203L40.344 13.3698L41.4803 12.8488ZM39.435 13.7866L39.8709 14.7371L38.7346 15.2582L38.2988 14.3076L39.435 13.7866ZM37.3898 14.7245L37.8256 15.675L36.6894 16.196L36.2536 15.2455L37.3898 14.7245ZM35.3446 15.6623L35.7804 16.6128L34.6442 17.1338L34.2083 16.1833L35.3446 15.6623Z" fill="white"/>
</g>
</g>
<defs>
<clipPath id="clip0">
<rect width="24" height="24" fill="white" transform="translate(25)"/>
</clipPath>
<clipPath id="clip1">
<rect width="9.56049" height="16" fill="white" transform="translate(46.7879 9.42896) rotate(65.3665)"/>
</clipPath>
</defs>
</svg>
