<svg width="73" height="47" viewBox="0 0 73 47" fill="none" xmlns="http://www.w3.org/2000/svg">
<g clip-path="url(#clip0)">
<path d="M33.9842 25.0938L36.786 31.204L49.9664 25.1602L46.2307 17.0132L33.0503 23.057L33.9842 25.0938ZM48.3726 24.0836L48.8084 25.0339L47.6721 25.5549L47.2364 24.6046L48.3726 24.0836ZM46.3274 25.0214L46.7631 25.9717L45.6269 26.4927L45.1912 25.5424L46.3274 25.0214ZM44.2822 25.9592L44.7179 26.9095L43.5817 27.4305L43.1459 26.4803L44.2822 25.9592ZM42.2369 26.8971L42.6727 27.8473L41.5364 28.3684L41.1007 27.4181L42.2369 26.8971ZM40.1917 27.8349L40.6274 28.7852L39.4912 29.3062L39.0555 28.3559L40.1917 27.8349ZM38.1465 28.7727L38.5822 29.723L37.446 30.244L37.0102 29.2937L38.1465 28.7727ZM42.1652 21.3425L46.2556 19.4668L48.1235 23.5402L42.8968 25.9369L41.0289 21.8635L42.1652 21.3425ZM36.0295 24.1559L40.1199 22.2803L41.9878 26.3537L36.7611 28.7503L34.8932 24.677L36.0295 24.1559ZM45.5707 17.9731L46.0066 18.9237L44.8703 19.4447L44.4345 18.4942L45.5707 17.9731ZM43.5255 18.911L43.9614 19.8615L42.8251 20.3825L42.3893 19.432L43.5255 18.911ZM41.4803 19.8488L41.9161 20.7993L40.7799 21.3203L40.344 20.3698L41.4803 19.8488ZM39.435 20.7866L39.8709 21.7371L38.7346 22.2582L38.2988 21.3076L39.435 20.7866ZM37.3898 21.7245L37.8256 22.675L36.6894 23.196L36.2536 22.2455L37.3898 21.7245ZM35.3446 22.6623L35.7804 23.6128L34.6442 24.1338L34.2083 23.1833L35.3446 22.6623Z" fill="white"/>
</g>
<path d="M12.432 41.88C11.936 41.976 11.312 42.048 10.56 42.096C9.824 42.16 9.136 42.192 8.496 42.192C6.512 42.192 5.064 41.976 4.152 41.544C3.24 41.112 2.624 40.328 2.304 39.192C2 38.04 1.848 36.224 1.848 33.744C1.848 31.28 2 29.472 2.304 28.32C2.624 27.168 3.24 26.376 4.152 25.944C5.064 25.512 6.512 25.296 8.496 25.296C9.152 25.296 9.84 25.328 10.56 25.392C11.28 25.456 11.872 25.544 12.336 25.656V27.456C11.136 27.296 10.032 27.216 9.024 27.216C7.344 27.216 6.168 27.344 5.496 27.6C4.84 27.856 4.408 28.408 4.2 29.256C3.992 30.104 3.888 31.6 3.888 33.744C3.888 35.888 3.992 37.384 4.2 38.232C4.408 39.08 4.84 39.632 5.496 39.888C6.168 40.144 7.344 40.272 9.024 40.272C10.256 40.272 11.392 40.192 12.432 40.032V41.88Z" fill="#FFD200"/>
<path d="M14.9807 32.9V31.598H16.1847V32.9H14.9807ZM15.0227 42V34.86H16.1567V42H15.0227ZM23.4074 37.982C23.4074 37.3193 23.3654 36.848 23.2814 36.568C23.1974 36.2787 23.0387 36.0873 22.8054 35.994C22.572 35.9007 22.18 35.854 21.6294 35.854C21.0414 35.854 20.6074 35.9473 20.3274 36.134C20.0567 36.3207 19.884 36.5773 19.8094 36.904C19.744 37.2307 19.7114 37.702 19.7114 38.318V42H18.5774V34.86H19.5854L19.6414 35.868H19.7254C19.884 35.504 20.1454 35.2287 20.5094 35.042C20.8734 34.846 21.4007 34.748 22.0914 34.748C22.782 34.748 23.3 34.846 23.6454 35.042C24 35.238 24.238 35.532 24.3594 35.924C24.4807 36.3067 24.5414 36.8433 24.5414 37.534V42H23.4074V37.982ZM32.6702 38.836H27.7842C27.7842 39.5173 27.8309 40.0027 27.9242 40.292C28.0176 40.5813 28.2182 40.7867 28.5262 40.908C28.8436 41.02 29.3709 41.076 30.1082 41.076C30.8269 41.076 31.5876 41.0247 32.3902 40.922V41.916C32.0916 41.972 31.7042 42.0187 31.2282 42.056C30.7522 42.0933 30.2996 42.112 29.8702 42.112C28.9089 42.112 28.1996 42 27.7422 41.776C27.2942 41.552 27.0002 41.1927 26.8602 40.698C26.7202 40.2033 26.6502 39.452 26.6502 38.444C26.6502 37.4547 26.7109 36.7127 26.8322 36.218C26.9629 35.7233 27.2476 35.3547 27.6862 35.112C28.1342 34.8693 28.8389 34.748 29.8002 34.748C30.6962 34.748 31.3449 34.8693 31.7462 35.112C32.1476 35.3453 32.3996 35.7047 32.5022 36.19C32.6142 36.666 32.6702 37.4127 32.6702 38.43V38.836ZM29.7722 35.784C29.1656 35.784 28.7269 35.84 28.4562 35.952C28.1949 36.0547 28.0176 36.2553 27.9242 36.554C27.8402 36.8433 27.7936 37.3147 27.7842 37.968H31.5782V37.856C31.5782 37.24 31.5222 36.7873 31.4102 36.498C31.3076 36.2087 31.1349 36.0173 30.8922 35.924C30.6496 35.8307 30.2762 35.784 29.7722 35.784ZM43.5842 37.982C43.5842 37.31 43.5469 36.834 43.4722 36.554C43.4069 36.274 43.2716 36.0873 43.0662 35.994C42.8609 35.9007 42.5156 35.854 42.0302 35.854C41.5076 35.854 41.1249 35.9427 40.8822 36.12C40.6396 36.2973 40.4856 36.5493 40.4202 36.876C40.3549 37.2027 40.3222 37.6833 40.3222 38.318V42H39.1882V37.982C39.1882 37.31 39.1509 36.834 39.0762 36.554C39.0109 36.274 38.8756 36.0873 38.6702 35.994C38.4649 35.9007 38.1196 35.854 37.6342 35.854C37.1116 35.854 36.7289 35.9473 36.4862 36.134C36.2436 36.3113 36.0896 36.568 36.0242 36.904C35.9589 37.2307 35.9262 37.702 35.9262 38.318V42H34.7922V34.86H35.8002L35.8562 35.868H35.9402C36.0802 35.504 36.3182 35.2287 36.6542 35.042C36.9996 34.846 37.4849 34.748 38.1102 34.748C38.7262 34.748 39.1929 34.8367 39.5102 35.014C39.8276 35.1913 40.0469 35.476 40.1682 35.868H40.2662C40.5649 35.1213 41.3069 34.748 42.4922 34.748C43.1176 34.748 43.5889 34.846 43.9062 35.042C44.2236 35.238 44.4382 35.532 44.5502 35.924C44.6622 36.3067 44.7182 36.8433 44.7182 37.534V42H43.5842V37.982ZM49.0556 42.112C48.2343 42.112 47.6369 41.9627 47.2636 41.664C46.8903 41.356 46.7036 40.8147 46.7036 40.04C46.7036 39.4893 46.7689 39.06 46.8996 38.752C47.0303 38.444 47.2496 38.22 47.5576 38.08C47.8749 37.94 48.3183 37.87 48.8876 37.87C49.1583 37.87 50.0496 37.8933 51.5616 37.94V37.52C51.5616 36.96 51.5056 36.5633 51.3936 36.33C51.2909 36.0967 51.0949 35.9473 50.8056 35.882C50.5256 35.8167 50.0449 35.784 49.3636 35.784C49.0649 35.784 48.6869 35.8027 48.2296 35.84C47.7816 35.868 47.4316 35.9007 47.1796 35.938V34.944C47.9169 34.8133 48.7803 34.748 49.7696 34.748C50.6096 34.748 51.2349 34.8367 51.6456 35.014C52.0656 35.182 52.3456 35.462 52.4856 35.854C52.6256 36.2367 52.6956 36.7967 52.6956 37.534V42H51.6736L51.6176 41.006H51.5336C51.3376 41.454 51.0203 41.7527 50.5816 41.902C50.1523 42.042 49.6436 42.112 49.0556 42.112ZM49.4896 41.09C49.9563 41.09 50.3343 41.048 50.6236 40.964C50.9223 40.88 51.1369 40.7167 51.2676 40.474C51.4636 40.138 51.5616 39.6713 51.5616 39.074V38.752H49.1816C48.7896 38.752 48.5003 38.78 48.3136 38.836C48.1363 38.892 48.0103 39.004 47.9356 39.172C47.8609 39.3307 47.8236 39.5827 47.8236 39.928C47.8236 40.264 47.8656 40.5113 47.9496 40.67C48.0336 40.8287 48.1876 40.9407 48.4116 41.006C48.6449 41.062 49.0043 41.09 49.4896 41.09Z" fill="#FFFEFB"/>
<line x1="40.5" x2="40.5" y2="22" stroke="white"/>
<defs>
<clipPath id="clip0">
<rect width="9.56049" height="16" fill="white" transform="translate(46.7879 16.429) rotate(65.3665)"/>
</clipPath>
</defs>
</svg>
