<svg xmlns="http://www.w3.org/2000/svg" xmlns:xlink="http://www.w3.org/1999/xlink" width="512" height="512" preserveAspectRatio="xMidYMid meet" viewBox="0 0 512 512" style="-ms-transform: rotate(360deg); -webkit-transform: rotate(360deg); transform: rotate(360deg);"><path fill="#FFDD20" d="M136 488h359.985V24H16v464h120zM408 56h55.985v40H408zm0 72h55.985v40H408zm0 72h55.985v40H408zm0 72h55.985v40H408zm0 72h55.985v40H408zm0 72h55.985v40H408zM136 200V56h239.985v184H136zm0 216V272h239.985v184H136zM48 56h56v40H48zm0 72h56v40H48zm0 72h56v40H48zm0 72h56v40H48zm0 72h56v40H48zm0 72h56v40H48z"/><rect x="0" y="0" width="512" height="512" fill="rgba(0, 0, 0, 0)" /></svg>