<svg xmlns="http://www.w3.org/2000/svg" xmlns:xlink="http://www.w3.org/1999/xlink" width="24" height="24" preserveAspectRatio="xMidYMid meet" viewBox="0 0 24 24" style="-ms-transform: rotate(360deg); -webkit-transform: rotate(360deg); transform: rotate(360deg);"><g class="icon-tabler" fill="none" stroke="#fff" stroke-width="2" stroke-linecap="round" stroke-linejoin="round"><path d="M17.8 19.817l-2.172 1.138a.392.392 0 0 1-.568-.41l.415-2.411l-1.757-1.707a.389.389 0 0 1 .217-.665l2.428-.352l1.086-2.193a.392.392 0 0 1 .702 0l1.086 2.193l2.428.352a.39.39 0 0 1 .217.665l-1.757 1.707l.414 2.41a.39.39 0 0 1-.567.411L17.8 19.817z"/><path d="M6.2 19.817l-2.172 1.138a.392.392 0 0 1-.568-.41l.415-2.411l-1.757-1.707a.389.389 0 0 1 .217-.665l2.428-.352l1.086-2.193a.392.392 0 0 1 .702 0l1.086 2.193l2.428.352a.39.39 0 0 1 .217.665l-1.757 1.707l.414 2.41a.39.39 0 0 1-.567.411L6.2 19.817z"/><path d="M12 9.817l-2.172 1.138a.392.392 0 0 1-.568-.41l.415-2.411l-1.757-1.707a.389.389 0 0 1 .217-.665l2.428-.352l1.086-2.193a.392.392 0 0 1 .702 0l1.086 2.193l2.428.352a.39.39 0 0 1 .217.665l-1.757 1.707l.414 2.41a.39.39 0 0 1-.567.411L12 9.817z"/></g><rect x="0" y="0" width="24" height="24" fill="rgba(0, 0, 0, 0)" /></svg>