<svg xmlns="http://www.w3.org/2000/svg" xmlns:xlink="http://www.w3.org/1999/xlink" width="24" height="24" preserveAspectRatio="xMidYMid meet" viewBox="0 0 24 24" style="-ms-transform: rotate(360deg); -webkit-transform: rotate(360deg); transform: rotate(360deg);"><path d="M17 8.947c-.368.16-.763.27-1.178.318c.424-.25.748-.646.902-1.117a4.16 4.16 0 0 1-1.304.49A2.06 2.06 0 0 0 13.923 8c-1.133 0-2.051.905-2.051 2.02c0 .158.018.312.053.46a5.854 5.854 0 0 1-4.228-2.11a1.982 1.982 0 0 0-.278 1.015c0 .7.363 1.32.913 1.681a2.076 2.076 0 0 1-.93-.253v.025a2.03 2.03 0 0 0 1.646 1.98a2.108 2.108 0 0 1-.927.034a2.049 2.049 0 0 0 1.916 1.403a4.156 4.156 0 0 1-2.548.864c-.165 0-.328-.01-.489-.028a5.863 5.863 0 0 0 3.144.909c3.774 0 5.837-3.078 5.837-5.748l-.007-.262A4.063 4.063 0 0 0 17 8.947z" fill="#FFF"/><path d="M6 4a2 2 0 0 0-2 2v12a2 2 0 0 0 2 2h12a2 2 0 0 0 2-2V6a2 2 0 0 0-2-2H6zm0-2h12a4 4 0 0 1 4 4v12a4 4 0 0 1-4 4H6a4 4 0 0 1-4-4V6a4 4 0 0 1 4-4z" fill="#FFF"/><rect x="0" y="0" width="24" height="24" fill="rgba(0, 0, 0, 0)" /></svg>